<svg width="20" height="20" viewBox="0 0 20 20" fill="none" xmlns="http://www.w3.org/2000/svg">
<path d="M17.0375 17.0444H14.0794V12.4025C14.0794 11.2956 14.0562 9.87313 12.5325 9.87313C10.99 9.87313 10.755 11.0737 10.755 12.3206V17.0438H7.79313V7.49937H10.6381V8.80125H10.6763C11.0738 8.04937 12.0406 7.25875 13.4831 7.25875C16.4837 7.25875 17.0406 9.23438 17.0406 11.8031V17.0438L17.0375 17.0444ZM4.44687 6.195C3.4925 6.195 2.7275 5.42313 2.7275 4.4725C2.7275 3.525 3.49562 2.75437 4.44687 2.75437C5.39812 2.75437 6.16875 3.525 6.16875 4.4725C6.16875 5.42313 5.39812 6.195 4.44687 6.195ZM5.93062 17.0444H2.9625V7.5H5.93062V17.0444ZM18.5225 0H1.475C0.660625 0 0 0.644375 0 1.44187V18.5588C0 19.3563 0.660625 20.0006 1.475 20.0006H18.5194C19.3325 20.0006 20 19.3563 20 18.5588V1.44187C20 0.644375 19.3325 0 18.5194 0L18.5225 0Z" fill="#EDECE8"/>
</svg>
